<svg xmlns="http://www.w3.org/2000/svg" xmlns:xlink="http://www.w3.org/1999/xlink" xml:space="preserve" version="1.1" style="shape-rendering:geometricPrecision;text-rendering:geometricPrecision;image-rendering:optimizeQuality;" viewBox="0 0 10000 12500" x="0px" y="0px" fill-rule="evenodd" clip-rule="evenodd"><defs><style type="text/css">
   
    .fil0 {fill:black}
   
  </style></defs><g><path class="fil0" d="M4013 3644l689 95 -951 1142 761 0 -1023 1118 809 0 -951 1070 1284 24 -24 999c290,0 579,0 868,0l-23 -999 1284 -24 -951 -1070 808 0 -1023 -1118 762 0 -952 -1142 690 -95 -1028 -1736 -1029 1736z"/><path class="fil0" d="M1406 5393l415 58 -573 687 458 0 -615 673 487 0 -573 644 773 14 -14 601c174,0 348,0 522,0l-14 -601 773 -14 -573 -644 487 0 -615 -673 458 0 -573 -687 415 -58 -619 -1045 -619 1045z"/><path class="fil0" d="M7356 5393l415 58 -573 687 458 0 -615 673 487 0 -573 644 773 14 -14 601c174,0 348,0 522,0l-14 -601 773 -14 -573 -644 487 0 -616 -673 459 0 -573 -687 415 -58 -619 -1045 -619 1045z"/></g><text x="0" y="10015" fill="#000000" font-size="5px" font-weight="bold" font-family="'Helvetica Neue', Helvetica, Arial-Unicode, Arial, Sans-serif">Created by zoo</text><text x="0" y="10020" fill="#000000" font-size="5px" font-weight="bold" font-family="'Helvetica Neue', Helvetica, Arial-Unicode, Arial, Sans-serif">from the Noun Project</text></svg>